<svg xmlns="http://www.w3.org/2000/svg" width="98.58" height="72.784" viewBox="0 0 98.58 72.784">
  <g id="app_1_" data-name="app (1)" transform="translate(0 -64.694)">
    <g id="Group_11881" data-name="Group 11881" transform="translate(0 84.923)">
      <g id="Group_11880" data-name="Group 11880" transform="translate(0 0)">
        <path id="Path_5708" data-name="Path 5708" d="M0,177.633v49.522a3.025,3.025,0,0,0,3.018,3.032H95.562a3.025,3.025,0,0,0,3.018-3.032V177.633Zm47.278,42.448a3.025,3.025,0,0,1-3.018,3.032H13.077a3.025,3.025,0,0,1-3.018-3.032V208.963a3.025,3.025,0,0,1,3.018-3.032H44.26a3.025,3.025,0,0,1,3.018,3.032v11.117Zm0-21.224a3.025,3.025,0,0,1-3.018,3.032H13.077a3.025,3.025,0,0,1-3.018-3.032V187.74a3.025,3.025,0,0,1,3.018-3.032H44.26a3.025,3.025,0,0,1,3.018,3.032v11.117Zm28.166,18.7H72.929v2.527a3.018,3.018,0,1,1-6.035,0v-2.527H64.379a3.032,3.032,0,0,1,0-6.064h2.515v-2.527a3.018,3.018,0,1,1,6.035,0v2.527h2.515a3.032,3.032,0,0,1,0,6.064Zm13.077-18.7a3.025,3.025,0,0,1-3.018,3.032H54.319a3.025,3.025,0,0,1-3.018-3.032V187.74a3.025,3.025,0,0,1,3.018-3.032H85.5a3.025,3.025,0,0,1,3.018,3.032Z" transform="translate(0 -177.633)" fill="#0670f4"/>
      </g>
    </g>
    <g id="Group_11883" data-name="Group 11883" transform="translate(0 64.694)">
      <g id="Group_11882" data-name="Group 11882" transform="translate(0 0)">
        <path id="Path_5709" data-name="Path 5709" d="M95.562,62.694H3.018A3,3,0,0,0,0,65.678V78.609H98.58V65.678A3,3,0,0,0,95.562,62.694ZM29.171,73.636h-16.5a2.984,2.984,0,1,1,0-5.968h16.5a2.984,2.984,0,1,1,0,5.968Z" transform="translate(0 -62.694)" fill="#0d3a8f"/>
      </g>
    </g>
  </g>
</svg>
