<svg xmlns="http://www.w3.org/2000/svg" width="35.487" height="49.682" viewBox="0 0 35.487 49.682">
  <g id="Icons" transform="translate(-6 -4)">
    <g id="Group_10764" data-name="Group 10764" transform="translate(6 4)">
      <g id="Group_10712" data-name="Group 10712">
        <g id="Group_10711" data-name="Group 10711">
          <g id="Group_10710" data-name="Group 10710">
            <path id="Path_5661" data-name="Path 5661" d="M37.939,4H14.872L6,12.872V50.134a3.549,3.549,0,0,0,3.549,3.549h28.39a3.549,3.549,0,0,0,3.549-3.549V7.549A3.549,3.549,0,0,0,37.939,4Z" transform="translate(-6 -4)" fill="#0670f4"/>
          </g>
        </g>
      </g>
      <circle id="Ellipse_208" data-name="Ellipse 208" cx="5" cy="5" r="5" transform="translate(12.744 9.841)" fill="#fff"/>
      <g id="Group_10715" data-name="Group 10715">
        <g id="Group_10714" data-name="Group 10714">
          <g id="Group_10713" data-name="Group 10713">
            <path id="Path_5662" data-name="Path 5662" d="M6,12.872h5.323a3.549,3.549,0,0,0,3.549-3.549V4Z" transform="translate(-6 -4)" fill="#0d3a8f"/>
          </g>
        </g>
      </g>
      <g id="Group_10737" data-name="Group 10737" transform="translate(8.872 5.323)">
        <g id="Group_10736" data-name="Group 10736">
          <g id="Group_10735" data-name="Group 10735">
            <path id="Path_5669" data-name="Path 5669" d="M32.857,17.1H32.4a.91.91,0,0,1-.847-.625c-.077-.214-.163-.422-.26-.625a.91.91,0,0,1,.156-1.042l.323-.323a.886.886,0,0,0,0-1.254l-1.254-1.254a.886.886,0,0,0-1.254,0l-.323.323a.909.909,0,0,1-1.042.156c-.2-.1-.413-.183-.625-.26a.911.911,0,0,1-.626-.848v-.456A.888.888,0,0,0,25.759,10H23.985a.888.888,0,0,0-.887.887v.456a.91.91,0,0,1-.625.847c-.214.077-.422.163-.625.26a.91.91,0,0,1-1.042-.156l-.323-.323a.886.886,0,0,0-1.254,0l-1.254,1.254a.886.886,0,0,0,0,1.254l.323.323a.909.909,0,0,1,.156,1.042c-.1.2-.183.413-.26.625a.911.911,0,0,1-.848.626h-.456a.888.888,0,0,0-.887.887v1.774a.888.888,0,0,0,.887.887h.456a.91.91,0,0,1,.847.625c.077.214.163.422.26.625a.91.91,0,0,1-.156,1.042l-.323.323a.886.886,0,0,0,0,1.254l1.254,1.254a.886.886,0,0,0,1.254,0l.323-.323a.909.909,0,0,1,1.042-.156c.2.1.413.183.625.26a.911.911,0,0,1,.626.848v.456a.888.888,0,0,0,.887.887h1.774a.888.888,0,0,0,.887-.887V26.4a.91.91,0,0,1,.625-.847c.214-.077.422-.163.625-.26a.91.91,0,0,1,1.042.156l.323.323a.886.886,0,0,0,1.254,0l1.254-1.254a.886.886,0,0,0,0-1.254l-.323-.323a.909.909,0,0,1-.156-1.042c.1-.2.183-.413.26-.625a.911.911,0,0,1,.848-.626h.456a.888.888,0,0,0,.887-.887V17.985a.888.888,0,0,0-.887-.887Zm-7.985,5.323a3.549,3.549,0,1,1,3.549-3.549A3.549,3.549,0,0,1,24.872,22.421Z" transform="translate(-16 -10)" fill="#0d3a8f"/>
          </g>
        </g>
      </g>
      <g id="Group_10744" data-name="Group 10744" transform="translate(21.292 23.067)">
        <g id="Group_10740" data-name="Group 10740">
          <g id="Group_10739" data-name="Group 10739">
            <g id="Group_10738" data-name="Group 10738">
              <ellipse id="Ellipse_206" data-name="Ellipse 206" cx="5" cy="5.5" rx="5" ry="5.5" transform="translate(0.451 -0.226)" fill="#0d3a8f"/>
            </g>
          </g>
        </g>
        <g id="Group_10743" data-name="Group 10743" transform="translate(1.774 2.661)">
          <g id="Group_10742" data-name="Group 10742">
            <g id="Group_10741" data-name="Group 10741">
              <path id="Path_5670" data-name="Path 5670" d="M34.662,38.323a.885.885,0,0,1-.627-.26L32.26,36.289a.887.887,0,0,1,1.254-1.254l1.147,1.147,2.922-2.922a.887.887,0,1,1,1.254,1.254l-3.549,3.549A.885.885,0,0,1,34.662,38.323Z" transform="translate(-32 -33)" fill="#fff"/>
            </g>
          </g>
        </g>
      </g>
      <g id="Group_10751" data-name="Group 10751" transform="translate(21.292 35.487)">
        <g id="Group_10747" data-name="Group 10747">
          <g id="Group_10746" data-name="Group 10746">
            <g id="Group_10745" data-name="Group 10745">
              <circle id="Ellipse_207" data-name="Ellipse 207" cx="5" cy="5" r="5" transform="translate(0.451 0.354)" fill="#0d3a8f"/>
            </g>
          </g>
        </g>
        <g id="Group_10750" data-name="Group 10750" transform="translate(1.774 2.661)">
          <g id="Group_10749" data-name="Group 10749">
            <g id="Group_10748" data-name="Group 10748">
              <path id="Path_5671" data-name="Path 5671" d="M34.662,52.323a.885.885,0,0,1-.627-.26L32.26,50.289a.887.887,0,0,1,1.254-1.254l1.147,1.147,2.922-2.922a.887.887,0,1,1,1.254,1.254l-3.549,3.549A.885.885,0,0,1,34.662,52.323Z" transform="translate(-32 -47)" fill="#fff"/>
            </g>
          </g>
        </g>
      </g>
      <g id="Group_10754" data-name="Group 10754" transform="translate(3.549 27.503)">
        <g id="Group_10753" data-name="Group 10753">
          <g id="Group_10752" data-name="Group 10752">
            <path id="Path_5672" data-name="Path 5672" d="M25.082,36.774H10.887a.887.887,0,1,1,0-1.774H25.082a.887.887,0,1,1,0,1.774Z" transform="translate(-10 -35)" fill="#fff"/>
          </g>
        </g>
      </g>
      <g id="Group_10757" data-name="Group 10757" transform="translate(3.549 31.939)">
        <g id="Group_10756" data-name="Group 10756">
          <g id="Group_10755" data-name="Group 10755">
            <path id="Path_5673" data-name="Path 5673" d="M17.985,41.774h-7.1a.887.887,0,0,1,0-1.774h7.1a.887.887,0,0,1,0,1.774Z" transform="translate(-10 -40)" fill="#fff"/>
          </g>
        </g>
      </g>
      <g id="Group_10760" data-name="Group 10760" transform="translate(3.549 44.359)">
        <g id="Group_10759" data-name="Group 10759">
          <g id="Group_10758" data-name="Group 10758">
            <path id="Path_5674" data-name="Path 5674" d="M17.985,55.774h-7.1a.887.887,0,0,1,0-1.774h7.1a.887.887,0,0,1,0,1.774Z" transform="translate(-10 -54)" fill="#fff"/>
          </g>
        </g>
      </g>
      <g id="Group_10763" data-name="Group 10763" transform="translate(3.549 39.923)">
        <g id="Group_10762" data-name="Group 10762">
          <g id="Group_10761" data-name="Group 10761">
            <path id="Path_5675" data-name="Path 5675" d="M25.082,50.774H10.887a.887.887,0,1,1,0-1.774H25.082a.887.887,0,1,1,0,1.774Z" transform="translate(-10 -49)" fill="#fff"/>
          </g>
        </g>
      </g>
    </g>
  </g>
</svg>
