<svg xmlns="http://www.w3.org/2000/svg" width="361.952" height="69.5" viewBox="0 0 361.952 69.5">
  <g id="Group_10461" data-name="Group 10461" transform="translate(-1189 -14488)">
    <rect id="Rectangle_906" data-name="Rectangle 906" width="361.952" height="69.5" rx="12" transform="translate(1189 14488)" fill="#fff"/>
    <g id="Group_10460" data-name="Group 10460" transform="translate(1213.989 14505.961)">
      <text id="Get_an_Estimated_Quote_" data-name="Get an Estimated Quote!" transform="translate(0 24.524)" fill="#242525" font-size="21" font-family="SegoeUI, Segoe UI"><tspan x="0" y="0">Get an Estimated Quote!</tspan></text>
      <g id="Group_10459" data-name="Group 10459" transform="translate(277.838 0)">
        <path id="Path_5451" data-name="Path 5451" d="M121.242,129.773a8.976,8.976,0,1,0,8.976-8.976A8.986,8.986,0,0,0,121.242,129.773Zm10.028,1.506a1.421,1.421,0,0,0-.418-.273,4.551,4.551,0,0,0-.632-.226q-.365-.1-.795-.232a6.884,6.884,0,0,1-.986-.377,2.6,2.6,0,0,1-.69-.47,1.7,1.7,0,0,1-.406-.615,2.264,2.264,0,0,1-.133-.812,2.582,2.582,0,0,1,.244-1.148,2.48,2.48,0,0,1,.661-.841,2.886,2.886,0,0,1,.968-.516l.131-.038v-1.542h2V125.7a6.268,6.268,0,0,1,.685.184,5.767,5.767,0,0,1,.713.29q.331.163.609.325l-.835,1.578a1.168,1.168,0,0,0-.244-.174,4.6,4.6,0,0,0-.522-.267,5.062,5.062,0,0,0-.684-.244,2.731,2.731,0,0,0-.742-.1q-1.021,0-1.021.684a.542.542,0,0,0,.11.348.971.971,0,0,0,.325.249,2.991,2.991,0,0,0,.539.2q.325.093.754.209a9.892,9.892,0,0,1,1.067.354,2.861,2.861,0,0,1,.806.476,1.925,1.925,0,0,1,.51.69,2.393,2.393,0,0,1,.18.974,2.441,2.441,0,0,1-.261,1.177,2.2,2.2,0,0,1-.69.777,2.917,2.917,0,0,1-.986.429c-.1.025-.208.046-.314.064v1.544h-2v-1.582a6.63,6.63,0,0,1-.694-.165,7.335,7.335,0,0,1-.876-.319,4.891,4.891,0,0,1-.783-.429l.835-1.659a1.612,1.612,0,0,0,.3.221,4.484,4.484,0,0,0,.632.325,6.378,6.378,0,0,0,.841.29,3.522,3.522,0,0,0,.94.128q1.009,0,1.009-.615A.52.52,0,0,0,131.27,131.278Zm0,0" transform="translate(-113.18 -112.764)" fill="#113c8c"/>
        <path id="Path_5452" data-name="Path 5452" d="M271.238,6.082a10.99,10.99,0,0,1,9.928,9.928h6.082A17.036,17.036,0,0,0,271.238,0Zm0,0" transform="translate(-253.201 0)" fill="#113c8c"/>
        <path id="Path_5453" data-name="Path 5453" d="M27.965,18.007A10.972,10.972,0,1,1,16.04,6.082V0A17.038,17.038,0,0,0,4.991,29.056,17.038,17.038,0,0,0,34.047,18.007Zm0,0" transform="translate(0 0)" fill="#0670f4"/>
      </g>
    </g>
  </g>
</svg>
