<svg xmlns="http://www.w3.org/2000/svg" width="74" height="74" viewBox="0 0 74 74">
  <g id="Group_13006" data-name="Group 13006" transform="translate(-582 -9313.898)">
    <g id="Path_8611" data-name="Path 8611" transform="translate(582 9313.898)" fill="none">
      <path d="M37,0A37,37,0,1,1,0,37,37,37,0,0,1,37,0Z" stroke="none"/>
      <path d="M 37 2 C 32.27414321899414 2 27.69072341918945 2.925125122070312 23.37703323364258 4.749656677246094 C 19.20949935913086 6.512367248535156 15.46624374389648 9.036277770996094 12.25126647949219 12.25126647949219 C 9.036277770996094 15.46624374389648 6.512367248535156 19.20949935913086 4.749656677246094 23.37703323364258 C 2.925125122070312 27.69072341918945 2 32.27414321899414 2 37 C 2 41.72585678100586 2.925125122070312 46.30928039550781 4.749656677246094 50.62296676635742 C 6.512367248535156 54.79050064086914 9.036277770996094 58.53375625610352 12.25126647949219 61.74873352050781 C 15.46624374389648 64.96372222900391 19.20949935913086 67.48763275146484 23.37703323364258 69.25034332275391 C 27.69072341918945 71.07487487792969 32.27414321899414 72 37 72 C 41.72585678100586 72 46.30928039550781 71.07487487792969 50.62296676635742 69.25034332275391 C 54.79050064086914 67.48763275146484 58.53375625610352 64.96372222900391 61.74873352050781 61.74873352050781 C 64.96372222900391 58.53375625610352 67.48763275146484 54.79050064086914 69.25034332275391 50.62296676635742 C 71.07487487792969 46.30928039550781 72 41.72585678100586 72 37 C 72 32.27414321899414 71.07487487792969 27.69072341918945 69.25034332275391 23.37703323364258 C 67.48763275146484 19.20949935913086 64.96372222900391 15.46624374389648 61.74873352050781 12.25126647949219 C 58.53375625610352 9.036277770996094 54.79050064086914 6.512367248535156 50.62296676635742 4.749656677246094 C 46.30928039550781 2.925125122070312 41.72585678100586 2 37 2 M 37 0 C 57.43453216552734 0 74 16.56546783447266 74 37 C 74 57.43453216552734 57.43453216552734 74 37 74 C 16.56546783447266 74 0 57.43453216552734 0 37 C 0 16.56546783447266 16.56546783447266 0 37 0 Z" stroke="none" fill="#fb5012"/>
    </g>
    <g id="Data_Analytic" data-name="Data Analytic" transform="translate(597.84 9330.089)">
      <path id="Path_9045" data-name="Path 9045" d="M33.774,57.3l.871-1.3H23.2l.871,1.3Z" transform="translate(-7.763 -19.583)" fill="#fb5012"/>
      <path id="Path_9046" data-name="Path 9046" d="M40.019,56H28.313a.65.65,0,0,1-.111.358c-1.379,2.061-1.385,2.244-1.84,2.244-11.218,0-10.678.124-10.945-.293C14.039,56.241,14.006,56.26,14.006,56H2.3A1.3,1.3,0,0,0,1,57.3v1.3a2.6,2.6,0,0,0,2.6,2.6H38.718a2.6,2.6,0,0,0,2.6-2.6V57.3A1.3,1.3,0,0,0,40.019,56Z" transform="translate(0 -19.583)" fill="#800020"/>
      <path id="Path_9047" data-name="Path 9047" d="M52,19h1.3V38.509H52Z" transform="translate(-17.834 -6.644)" fill="#fb5012"/>
      <path id="Path_9048" data-name="Path 9048" d="M40.117,15.951A1.951,1.951,0,0,0,38.166,14h-2.6v1.951h1.951a.65.65,0,0,1,.65.65v20.81a.65.65,0,0,1-.65.65H7.6a.65.65,0,0,1-.65-.65V16.6a.65.65,0,0,1,.65-.65H9.552V14h-2.6A1.951,1.951,0,0,0,5,15.951V40.012H40.117Z" transform="translate(-1.399 -4.896)" fill="#800020"/>
      <path id="Path_9049" data-name="Path 9049" d="M10,19h1.3V38.509H10Z" transform="translate(-3.147 -6.644)" fill="#fb5012"/>
      <path id="Path_9050" data-name="Path 9050" d="M14,8V34.663H37.411V8Zm3.9,25.362a.65.65,0,1,1,.65-.65A.65.65,0,0,1,17.9,33.362Zm0-2.6a.65.65,0,1,1,.65-.65A.65.65,0,0,1,17.9,30.761Zm0-2.6a.65.65,0,1,1,.65-.65A.65.65,0,0,1,17.9,28.16Zm15.607,5.2H20.5a.65.65,0,0,1,0-1.3H33.509a.65.65,0,1,1,0,1.3Zm0-2.6H20.5a.65.65,0,0,1,0-1.3H33.509a.65.65,0,0,1,0,1.3Zm0-2.6H20.5a.65.65,0,0,1,0-1.3H33.509a.65.65,0,1,1,0,1.3Zm0-3.9H17.9a.65.65,0,0,1-.65-.65V10.6a.65.65,0,1,1,1.3,0v8.187l5.391-5.4a.65.65,0,0,1,.923,0l2.14,2.146,4.286-4.286H30.258a.65.65,0,0,1,0-1.3c3.863,0,3.252-.553,3.252,3.252a.65.65,0,0,1-1.3,0V12.168l-4.741,4.747a.65.65,0,0,1-.923,0L24.4,14.77l-5.853,5.853v2.335H20.5V21.006a.65.65,0,0,1,1.3,0v1.951h1.951v-5.2a.65.65,0,0,1,1.3,0v5.2h1.951V19.706a.65.65,0,0,1,1.3,0v3.252h1.951v-6.5a.65.65,0,0,1,1.3,0v6.5h1.951a.65.65,0,1,1,0,1.3Z" transform="translate(-4.546 -2.798)" fill="#fb5012"/>
      <path id="Path_9051" data-name="Path 9051" d="M14,0V3.9H37.411V0Zm2.6,2.6a.65.65,0,1,1,.65-.65A.65.65,0,0,1,16.6,2.6Zm2.6,0a.65.65,0,1,1,.65-.65A.65.65,0,0,1,19.2,2.6Zm2.6,0a.65.65,0,1,1,.65-.65A.65.65,0,0,1,21.8,2.6Z" transform="translate(-4.546)" fill="#800020"/>
    </g>
  </g>
</svg>
