<svg xmlns="http://www.w3.org/2000/svg" width="72.167" height="72.167" viewBox="0 0 72.167 72.167">
  <g id="Group_13016" data-name="Group 13016" transform="translate(-930 -9692.915)">
    <g id="Path_8532" data-name="Path 8532" transform="translate(930 9692.915)" fill="none">
      <path d="M36.083,0A36.083,36.083,0,1,1,0,36.083,36.083,36.083,0,0,1,36.083,0Z" stroke="none"/>
      <path d="M 36.08349609375 1.999992370605469 C 31.48137283325195 1.999992370605469 27.01797485351562 2.900886535644531 22.8172721862793 4.677627563476562 C 18.75887298583984 6.394187927246094 15.11363983154297 8.852008819580078 11.98281860351562 11.98281860351562 C 8.852008819580078 15.11363983154297 6.394187927246094 18.75887298583984 4.677627563476562 22.8172721862793 C 2.900886535644531 27.01797485351562 1.999992370605469 31.48137283325195 1.999992370605469 36.08349609375 C 1.999992370605469 40.68561553955078 2.900886535644531 45.14901733398438 4.677627563476562 49.34971618652344 C 6.394187927246094 53.40811920166016 8.852008819580078 57.05335235595703 11.98281860351562 60.18417358398438 C 15.11363983154297 63.31498718261719 18.75887298583984 65.77280426025391 22.8172721862793 67.48936462402344 C 27.01797485351562 69.26610565185547 31.48137283325195 70.16699981689453 36.08349609375 70.16699981689453 C 40.68561553955078 70.16699981689453 45.14901733398438 69.26610565185547 49.34971618652344 67.48936462402344 C 53.40811920166016 65.77280426025391 57.05335235595703 63.31498718261719 60.18417358398438 60.18417358398438 C 63.31498718261719 57.05335235595703 65.77280426025391 53.40811920166016 67.48936462402344 49.34971618652344 C 69.26610565185547 45.14901733398438 70.16699981689453 40.68561553955078 70.16699981689453 36.08349609375 C 70.16699981689453 31.48137283325195 69.26610565185547 27.01797485351562 67.48936462402344 22.8172721862793 C 65.77280426025391 18.75887298583984 63.31498718261719 15.11363983154297 60.18417358398438 11.98281860351562 C 57.05335235595703 8.852008819580078 53.40811920166016 6.394187927246094 49.34971618652344 4.677627563476562 C 45.14901733398438 2.900886535644531 40.68561553955078 1.999992370605469 36.08349609375 1.999992370605469 M 36.08349609375 -7.62939453125e-06 C 56.01186370849609 -7.62939453125e-06 72.16699981689453 16.15512847900391 72.16699981689453 36.08349609375 C 72.16699981689453 56.01186370849609 56.01186370849609 72.16699981689453 36.08349609375 72.16699981689453 C 16.15512847900391 72.16699981689453 -7.62939453125e-06 56.01186370849609 -7.62939453125e-06 36.08349609375 C -7.62939453125e-06 16.15512847900391 16.15512847900391 -7.62939453125e-06 36.08349609375 -7.62939453125e-06 Z" stroke="none" fill="#fb5012"/>
    </g>
    <path id="audience" d="M15.989,21.68a7.875,7.875,0,1,0-7.875-7.875A7.884,7.884,0,0,0,15.989,21.68Zm0-12.983a5.108,5.108,0,1,1-5.108,5.108A5.114,5.114,0,0,1,15.989,8.7ZM43.969,27.431a1.383,1.383,0,0,0-1-.521l-5.783-.358a1.383,1.383,0,0,0-.171,2.762l1.921.119L35.495,31.86a11.3,11.3,0,0,0-14.381-8.042,44.77,44.77,0,0,0-5.125-.294,44.227,44.227,0,0,0-6.933.541A10.7,10.7,0,0,0,0,34.677v5.1a1.383,1.383,0,0,0,1.383,1.383H15.363a11.277,11.277,0,0,0,16.115,2.318l5.286,5.286a1.383,1.383,0,0,0,1.956-1.956l-5.286-5.286a11.235,11.235,0,0,0,2.384-6.508l5.139-3.623-.4,2.378a1.383,1.383,0,1,0,2.728.462l.967-5.712a1.382,1.382,0,0,0-.28-1.091ZM33.005,33.615l-4.212,2.969-6.2-4.4a1.383,1.383,0,0,0-1.662.045l-4.8,3.816a8.526,8.526,0,1,1,16.872-2.428ZM2.767,34.677A7.943,7.943,0,0,1,9.491,26.8a41.448,41.448,0,0,1,6.5-.506c.292,0,.583,0,.875.01A11.285,11.285,0,0,0,13.75,37.939l-.576.459H2.767Zm21.767,8.431a8.532,8.532,0,0,1-7.412-4.316l4.716-3.752,6.152,4.367a1.383,1.383,0,0,0,1.6,0l3.039-2.142A8.541,8.541,0,0,1,24.534,43.108Z" transform="translate(943.949 9701.447)" fill="#800020"/>
  </g>
</svg>
