<svg xmlns="http://www.w3.org/2000/svg" width="72.167" height="72.167" viewBox="0 0 72.167 72.167">
  <g id="Group_13019" data-name="Group 13019" transform="translate(-930 -10086.731)">
    <g id="Path_8532" data-name="Path 8532" transform="translate(930 10086.731)" fill="none">
      <path d="M36.083,0A36.083,36.083,0,1,1,0,36.083,36.083,36.083,0,0,1,36.083,0Z" stroke="none"/>
      <path d="M 36.08349609375 1.999992370605469 C 31.48137283325195 1.999992370605469 27.01797485351562 2.900886535644531 22.8172721862793 4.677627563476562 C 18.75887298583984 6.394187927246094 15.11363983154297 8.852008819580078 11.98281860351562 11.98281860351562 C 8.852008819580078 15.11363983154297 6.394187927246094 18.75887298583984 4.677627563476562 22.8172721862793 C 2.900886535644531 27.01797485351562 1.999992370605469 31.48137283325195 1.999992370605469 36.08349609375 C 1.999992370605469 40.68561553955078 2.900886535644531 45.14901733398438 4.677627563476562 49.34971618652344 C 6.394187927246094 53.40811920166016 8.852008819580078 57.05335235595703 11.98281860351562 60.18417358398438 C 15.11363983154297 63.31498718261719 18.75887298583984 65.77280426025391 22.8172721862793 67.48936462402344 C 27.01797485351562 69.26610565185547 31.48137283325195 70.16699981689453 36.08349609375 70.16699981689453 C 40.68561553955078 70.16699981689453 45.14901733398438 69.26610565185547 49.34971618652344 67.48936462402344 C 53.40811920166016 65.77280426025391 57.05335235595703 63.31498718261719 60.18417358398438 60.18417358398438 C 63.31498718261719 57.05335235595703 65.77280426025391 53.40811920166016 67.48936462402344 49.34971618652344 C 69.26610565185547 45.14901733398438 70.16699981689453 40.68561553955078 70.16699981689453 36.08349609375 C 70.16699981689453 31.48137283325195 69.26610565185547 27.01797485351562 67.48936462402344 22.8172721862793 C 65.77280426025391 18.75887298583984 63.31498718261719 15.11363983154297 60.18417358398438 11.98281860351562 C 57.05335235595703 8.852008819580078 53.40811920166016 6.394187927246094 49.34971618652344 4.677627563476562 C 45.14901733398438 2.900886535644531 40.68561553955078 1.999992370605469 36.08349609375 1.999992370605469 M 36.08349609375 -7.62939453125e-06 C 56.01186370849609 -7.62939453125e-06 72.16699981689453 16.15512847900391 72.16699981689453 36.08349609375 C 72.16699981689453 56.01186370849609 56.01186370849609 72.16699981689453 36.08349609375 72.16699981689453 C 16.15512847900391 72.16699981689453 -7.62939453125e-06 56.01186370849609 -7.62939453125e-06 36.08349609375 C -7.62939453125e-06 16.15512847900391 16.15512847900391 -7.62939453125e-06 36.08349609375 -7.62939453125e-06 Z" stroke="none" fill="#fb5012"/>
    </g>
    <g id="visualization-of-data" transform="translate(943.121 10103.997)">
      <g id="Group_13009" data-name="Group 13009" transform="translate(5.66)">
        <path id="Path_9059" data-name="Path 9059" d="M38.568,50.559h2.621a1.038,1.038,0,0,0,1.033-1.032V46.906a1.037,1.037,0,0,0-1.033-1.032H38.568a1.033,1.033,0,0,0-1.031,1.032v2.622A1.035,1.035,0,0,0,38.568,50.559Z" transform="translate(-29.004 -33.594)" fill="#fb5012"/>
        <path id="Path_9060" data-name="Path 9060" d="M68.214,36.527h3.161a1.245,1.245,0,0,0,1.242-1.242v-3.16a1.244,1.244,0,0,0-1.242-1.241H68.214a1.245,1.245,0,0,0-1.242,1.241v3.16A1.246,1.246,0,0,0,68.214,36.527Z" transform="translate(-50.559 -22.616)" fill="#fb5012"/>
        <path id="Path_9061" data-name="Path 9061" d="M68.341,91.6H65.179a1.245,1.245,0,0,0-1.242,1.242v3.161a1.247,1.247,0,0,0,1.242,1.241h3.162a1.248,1.248,0,0,0,1.242-1.241V92.847A1.248,1.248,0,0,0,68.341,91.6Z" transform="translate(-48.336 -67.082)" fill="#fb5012"/>
        <path id="Path_9062" data-name="Path 9062" d="M82.125,66.721V62.893a1.508,1.508,0,0,0-1.5-1.505H76.794a1.51,1.51,0,0,0-1.5,1.505v3.827a1.51,1.51,0,0,0,1.5,1.5h3.827A1.509,1.509,0,0,0,82.125,66.721Z" transform="translate(-56.65 -44.954)" fill="#fb5012"/>
        <path id="Path_9063" data-name="Path 9063" d="M95.426,11.316h1.78a.7.7,0,0,0,.7-.7V8.837a.7.7,0,0,0-.7-.7h-1.78a.7.7,0,0,0-.7.7v1.779A.7.7,0,0,0,95.426,11.316Z" transform="translate(-70.884 -5.959)" fill="#fb5012"/>
        <path id="Path_9064" data-name="Path 9064" d="M114.341,70.284h-1.78a.7.7,0,0,0-.7.7v1.779a.7.7,0,0,0,.7.7h1.78a.7.7,0,0,0,.7-.7V70.985A.7.7,0,0,0,114.341,70.284Z" transform="translate(-83.432 -51.469)" fill="#fb5012"/>
        <path id="Path_9065" data-name="Path 9065" d="M22.014,20.754a.6.6,0,0,0,.591-.59v-1.5a.6.6,0,0,0-.591-.592H20.508c-.029,0-.045.028-.078.034V5.717L8.877,0H5.66V37.635H8.877L20.429,23.342V20.725c.033,0,.049.033.078.033h1.506v0ZM19,22.834,10.306,33.589V2.3L19,6.6Z" transform="translate(-5.66)" fill="#800020"/>
        <path id="Path_9066" data-name="Path 9066" d="M101.054,91.6H99.548a.6.6,0,0,0-.59.592v1.5a.594.594,0,0,0,.59.593h1.5a.6.6,0,0,0,.592-.593V92.2A.592.592,0,0,0,101.054,91.6Z" transform="translate(-73.982 -67.082)" fill="#fb5012"/>
        <path id="Path_9067" data-name="Path 9067" d="M107.825,27.143h-5.133a2.022,2.022,0,0,0-2.016,2.018v5.131a2.024,2.024,0,0,0,2.016,2.018h5.133a2.026,2.026,0,0,0,2.02-2.018V29.161A2.024,2.024,0,0,0,107.825,27.143Z" transform="translate(-75.24 -19.877)" fill="#fb5012"/>
      </g>
    </g>
  </g>
</svg>
