<svg xmlns="http://www.w3.org/2000/svg" width="72.167" height="72.167" viewBox="0 0 72.167 72.167">
  <g id="Group_13008" data-name="Group 13008" transform="translate(-234 -9692.915)">
    <g id="Path_8532" data-name="Path 8532" transform="translate(234 9692.915)" fill="none">
      <path d="M36.083,0A36.083,36.083,0,1,1,0,36.083,36.083,36.083,0,0,1,36.083,0Z" stroke="none"/>
      <path d="M 36.08349609375 1.999992370605469 C 31.48137283325195 1.999992370605469 27.01797485351562 2.900886535644531 22.8172721862793 4.677627563476562 C 18.75887298583984 6.394187927246094 15.11363983154297 8.852008819580078 11.98281860351562 11.98281860351562 C 8.852008819580078 15.11363983154297 6.394187927246094 18.75887298583984 4.677627563476562 22.8172721862793 C 2.900886535644531 27.01797485351562 1.999992370605469 31.48137283325195 1.999992370605469 36.08349609375 C 1.999992370605469 40.68561553955078 2.900886535644531 45.14901733398438 4.677627563476562 49.34971618652344 C 6.394187927246094 53.40811920166016 8.852008819580078 57.05335235595703 11.98281860351562 60.18417358398438 C 15.11363983154297 63.31498718261719 18.75887298583984 65.77280426025391 22.8172721862793 67.48936462402344 C 27.01797485351562 69.26610565185547 31.48137283325195 70.16699981689453 36.08349609375 70.16699981689453 C 40.68561553955078 70.16699981689453 45.14901733398438 69.26610565185547 49.34971618652344 67.48936462402344 C 53.40811920166016 65.77280426025391 57.05335235595703 63.31498718261719 60.18417358398438 60.18417358398438 C 63.31498718261719 57.05335235595703 65.77280426025391 53.40811920166016 67.48936462402344 49.34971618652344 C 69.26610565185547 45.14901733398438 70.16699981689453 40.68561553955078 70.16699981689453 36.08349609375 C 70.16699981689453 31.48137283325195 69.26610565185547 27.01797485351562 67.48936462402344 22.8172721862793 C 65.77280426025391 18.75887298583984 63.31498718261719 15.11363983154297 60.18417358398438 11.98281860351562 C 57.05335235595703 8.852008819580078 53.40811920166016 6.394187927246094 49.34971618652344 4.677627563476562 C 45.14901733398438 2.900886535644531 40.68561553955078 1.999992370605469 36.08349609375 1.999992370605469 M 36.08349609375 -7.62939453125e-06 C 56.01186370849609 -7.62939453125e-06 72.16699981689453 16.15512847900391 72.16699981689453 36.08349609375 C 72.16699981689453 56.01186370849609 56.01186370849609 72.16699981689453 36.08349609375 72.16699981689453 C 16.15512847900391 72.16699981689453 -7.62939453125e-06 56.01186370849609 -7.62939453125e-06 36.08349609375 C -7.62939453125e-06 16.15512847900391 16.15512847900391 -7.62939453125e-06 36.08349609375 -7.62939453125e-06 Z" stroke="none" fill="#fb5012"/>
    </g>
    <g id="Page-1" transform="translate(247 9706)">
      <g id="_043---Data-Cloud" data-name="043---Data-Cloud">
        <circle id="Oval" cx="4" cy="4" r="4" transform="translate(19)"/>
        <circle id="Oval-2" data-name="Oval" cx="4" cy="4" r="4" transform="translate(19)" fill="#800020"/>
        <path id="Shape" d="M14.655,13.655A3.872,3.872,0,1,1,15.8,10.909a3.884,3.884,0,0,1-1.142,2.746Z" transform="translate(-1.791 -1.568)"/>
        <path id="Shape-2" data-name="Shape" d="M14.655,13.655A3.872,3.872,0,1,1,15.8,10.909a3.884,3.884,0,0,1-1.142,2.746Z" transform="translate(-1.791 -1.568)" fill="#800020"/>
        <ellipse id="Oval-3" data-name="Oval" cx="4" cy="3.5" rx="4" ry="3.5" transform="translate(0 19)"/>
        <ellipse id="Oval-4" data-name="Oval" cx="4" cy="3.5" rx="4" ry="3.5" transform="translate(0 19)" fill="#800020"/>
        <path id="Shape-3" data-name="Shape" d="M14.655,47.605a3.884,3.884,0,1,1,0-5.492A3.884,3.884,0,0,1,14.655,47.605Z" transform="translate(-1.791 -9.145)"/>
        <path id="Shape-4" data-name="Shape" d="M14.655,47.605a3.884,3.884,0,1,1,0-5.492A3.884,3.884,0,0,1,14.655,47.605Z" transform="translate(-1.791 -9.145)" fill="#800020"/>
        <circle id="Oval-5" data-name="Oval" cx="4" cy="4" r="4" transform="translate(19 37)"/>
        <circle id="Oval-6" data-name="Oval" cx="4" cy="4" r="4" transform="translate(19 37)" fill="#800020"/>
        <path id="Shape-5" data-name="Shape" d="M48.6,47.605a3.884,3.884,0,1,1,0-5.492A3.884,3.884,0,0,1,48.6,47.605Z" transform="translate(-9.368 -9.145)"/>
        <path id="Shape-6" data-name="Shape" d="M48.6,47.605a3.884,3.884,0,1,1,0-5.492A3.884,3.884,0,0,1,48.6,47.605Z" transform="translate(-9.368 -9.145)" fill="#800020"/>
        <ellipse id="Oval-7" data-name="Oval" cx="4" cy="3.5" rx="4" ry="3.5" transform="translate(39 19)"/>
        <ellipse id="Oval-8" data-name="Oval" cx="4" cy="3.5" rx="4" ry="3.5" transform="translate(39 19)" fill="#800020"/>
        <path id="Shape-7" data-name="Shape" d="M48.6,13.655a3.872,3.872,0,1,1,1.142-2.746A3.884,3.884,0,0,1,48.6,13.655Z" transform="translate(-9.368 -1.568)"/>
        <path id="Shape-8" data-name="Shape" d="M48.6,13.655a3.872,3.872,0,1,1,1.142-2.746A3.884,3.884,0,0,1,48.6,13.655Z" transform="translate(-9.368 -1.568)" fill="#800020"/>
        <path id="Shape-9" data-name="Shape" d="M30.554,11.92V16a6.976,6.976,0,0,0-1.344-.132,1.893,1.893,0,0,0-.21.008V11.92A4.886,4.886,0,0,0,30.554,11.92Z" transform="translate(-6.472 -2.66)" fill="#fb5012"/>
        <path id="Shape-10" data-name="Shape" d="M21.322,19.219a7.185,7.185,0,0,0-.917,1.29L17.22,17.323a5.565,5.565,0,0,0,1.1-1.1Z" transform="translate(-3.843 -3.62)" fill="#fb5012"/>
        <path id="Shape-11" data-name="Shape" d="M14.157,28a5.81,5.81,0,0,0-.52,1.554H11.92a4.886,4.886,0,0,0,0-1.554Z" transform="translate(-2.66 -6.249)" fill="#fb5012"/>
        <path id="Shape-12" data-name="Shape" d="M20.483,38.906l-2.16,2.16a5.565,5.565,0,0,0-1.1-1.1L18.6,38.58a5.546,5.546,0,0,0,1.872.326Z" transform="translate(-3.843 -8.61)" fill="#fb5012"/>
        <path id="Shape-13" data-name="Shape" d="M30.554,39v5.5A4.886,4.886,0,0,0,29,44.5V39Z" transform="translate(-6.472 -8.704)" fill="#fb5012"/>
        <path id="Shape-14" data-name="Shape" d="M41.834,39.92a5.565,5.565,0,0,0-1.1,1.1L38.54,38.833A6.319,6.319,0,0,0,40.3,38.39Z" transform="translate(-8.602 -8.568)" fill="#fb5012"/>
        <path id="Shape-15" data-name="Shape" d="M47.471,28.777a4.308,4.308,0,0,0,.062.777H45.9A6.849,6.849,0,0,0,45.63,28h1.9a4.308,4.308,0,0,0-.062.777Z" transform="translate(-10.184 -6.249)" fill="#fb5012"/>
        <path id="Shape-16" data-name="Shape" d="M37.735,27.545a5.049,5.049,0,0,0-4.863-4.63,4.746,4.746,0,0,0-1.243.163,4.96,4.96,0,0,0-.287-.761,5.049,5.049,0,0,0-.388-.73,5.523,5.523,0,0,0-4.047-2.548,3.806,3.806,0,0,0-.6-.039.955.955,0,0,0-.21.016,5.39,5.39,0,0,0-3.946,1.927,4.421,4.421,0,0,0-.482.653,5.671,5.671,0,0,0-.909,2.75,4.311,4.311,0,0,0-.559-.039,4.179,4.179,0,0,0-3.775,2.455,3.951,3.951,0,0,0-.287.785A4.362,4.362,0,0,0,19.6,32.936a3.806,3.806,0,0,0,.6.047h12.67a1.893,1.893,0,0,0,.21-.008,3.952,3.952,0,0,0,.955-.148,4.993,4.993,0,0,0,3.713-4.878c0-.14-.008-.272-.016-.4Z" transform="translate(-3.571 -4.24)" fill="#fb5012"/>
        <path id="Shape-17" data-name="Shape" d="M41.419,17.323l-3.441,3.441q-.245-.023-.489-.023c-.085,0-.171,0-.256.008a6.574,6.574,0,0,0-.552-.893l3.635-3.635A5.565,5.565,0,0,0,41.419,17.323Z" transform="translate(-8.186 -3.62)" fill="#fb5012"/>
      </g>
    </g>
  </g>
</svg>
