<svg xmlns="http://www.w3.org/2000/svg" width="72.167" height="72.167" viewBox="0 0 72.167 72.167">
  <g id="Group_13018" data-name="Group 13018" transform="translate(-582 -10086.731)">
    <g id="Path_8532" data-name="Path 8532" transform="translate(582 10086.731)" fill="none">
      <path d="M36.083,0A36.083,36.083,0,1,1,0,36.083,36.083,36.083,0,0,1,36.083,0Z" stroke="none"/>
      <path d="M 36.08349609375 1.999992370605469 C 31.48137283325195 1.999992370605469 27.01797485351562 2.900886535644531 22.8172721862793 4.677627563476562 C 18.75887298583984 6.394187927246094 15.11363983154297 8.852008819580078 11.98281860351562 11.98281860351562 C 8.852008819580078 15.11363983154297 6.394187927246094 18.75887298583984 4.677627563476562 22.8172721862793 C 2.900886535644531 27.01797485351562 1.999992370605469 31.48137283325195 1.999992370605469 36.08349609375 C 1.999992370605469 40.68561553955078 2.900886535644531 45.14901733398438 4.677627563476562 49.34971618652344 C 6.394187927246094 53.40811920166016 8.852008819580078 57.05335235595703 11.98281860351562 60.18417358398438 C 15.11363983154297 63.31498718261719 18.75887298583984 65.77280426025391 22.8172721862793 67.48936462402344 C 27.01797485351562 69.26610565185547 31.48137283325195 70.16699981689453 36.08349609375 70.16699981689453 C 40.68561553955078 70.16699981689453 45.14901733398438 69.26610565185547 49.34971618652344 67.48936462402344 C 53.40811920166016 65.77280426025391 57.05335235595703 63.31498718261719 60.18417358398438 60.18417358398438 C 63.31498718261719 57.05335235595703 65.77280426025391 53.40811920166016 67.48936462402344 49.34971618652344 C 69.26610565185547 45.14901733398438 70.16699981689453 40.68561553955078 70.16699981689453 36.08349609375 C 70.16699981689453 31.48137283325195 69.26610565185547 27.01797485351562 67.48936462402344 22.8172721862793 C 65.77280426025391 18.75887298583984 63.31498718261719 15.11363983154297 60.18417358398438 11.98281860351562 C 57.05335235595703 8.852008819580078 53.40811920166016 6.394187927246094 49.34971618652344 4.677627563476562 C 45.14901733398438 2.900886535644531 40.68561553955078 1.999992370605469 36.08349609375 1.999992370605469 M 36.08349609375 -7.62939453125e-06 C 56.01186370849609 -7.62939453125e-06 72.16699981689453 16.15512847900391 72.16699981689453 36.08349609375 C 72.16699981689453 56.01186370849609 56.01186370849609 72.16699981689453 36.08349609375 72.16699981689453 C 16.15512847900391 72.16699981689453 -7.62939453125e-06 56.01186370849609 -7.62939453125e-06 36.08349609375 C -7.62939453125e-06 16.15512847900391 16.15512847900391 -7.62939453125e-06 36.08349609375 -7.62939453125e-06 Z" stroke="none" fill="#fb5012"/>
    </g>
    <g id="data-science_1_" data-name="data-science (1)" transform="translate(581.18 10103.791)">
      <path id="Path_9056" data-name="Path 9056" d="M20.495,28.5c1.742,3.022,4.809,4.416,8.306,4.709,2.163,2.956,5,4.841,8.1,4.841s5.938-1.884,8.1-4.837c3.5-.293,6.566-1.689,8.308-4.712,1.728-2.99,1.421-6.317-.045-9.475,1.465-3.154,1.776-6.479.045-9.475-1.739-3.017-4.806-4.412-8.3-4.706C42.846,1.886,40.012,0,36.9,0S30.962,1.886,28.8,4.843c-3.5.294-6.565,1.689-8.3,4.706-1.728,2.99-1.421,6.317.045,9.475C19.075,22.178,18.764,25.5,20.495,28.5ZM29.948,7a18.716,18.716,0,0,1,3.127.233c-.8.364-1.575.75-2.3,1.17-.758.438-1.513.939-2.258,1.475A17.761,17.761,0,0,1,29.948,7ZM45.293,9.879c-.744-.535-1.5-1.036-2.258-1.474-.725-.418-1.5-.8-2.3-1.167A18.765,18.765,0,0,1,43.861,7,17.794,17.794,0,0,1,45.293,9.879ZM43.865,31.038a18.826,18.826,0,0,1-3.116-.233c.793-.362,1.564-.746,2.285-1.162.758-.438,1.513-.939,2.258-1.475A17.785,17.785,0,0,1,43.865,31.038Zm5.177-14.559a18.828,18.828,0,0,1,1.733,2.545,18.832,18.832,0,0,1-1.733,2.545c.073-.835.124-1.68.124-2.545s-.051-1.71-.124-2.545ZM41.92,10.336a26.034,26.034,0,0,1,4.475,3.313,26.946,26.946,0,0,1,0,10.748,26.039,26.039,0,0,1-4.475,3.315A26.062,26.062,0,0,1,36.9,29.9a26.038,26.038,0,0,1-5.016-2.189A26.035,26.035,0,0,1,27.413,24.4a26.946,26.946,0,0,1,0-10.748,24.56,24.56,0,0,1,9.495-5.509,26.167,26.167,0,0,1,5.012,2.195ZM24.766,21.57a18.815,18.815,0,0,1-1.733-2.546,18.849,18.849,0,0,1,1.733-2.545c-.073.835-.124,1.68-.124,2.545S24.693,20.735,24.766,21.57Zm6.007,8.074c.721.417,1.492.8,2.285,1.162a18.812,18.812,0,0,1-3.115.232,17.791,17.791,0,0,1-1.427-2.869c.744.535,1.5,1.036,2.258,1.474ZM36.9,35.819a7.479,7.479,0,0,1-5.282-2.606,25.064,25.064,0,0,0,5.277-.966,25.026,25.026,0,0,0,5.284.969A7.477,7.477,0,0,1,36.9,35.819Zm14.48-8.435a7.18,7.18,0,0,1-4.861,3.353A23.286,23.286,0,0,0,48.389,25.6a24.973,24.973,0,0,0,3.469-4.1A7.186,7.186,0,0,1,51.384,27.385Zm0-16.721a7.184,7.184,0,0,1,.474,5.881,24.92,24.92,0,0,0-3.471-4.1,23.275,23.275,0,0,0-1.867-5.139A7.191,7.191,0,0,1,51.384,10.664ZM36.9,2.229a7.48,7.48,0,0,1,5.284,2.608A25.039,25.039,0,0,0,36.9,5.8a25.031,25.031,0,0,0-5.283-.966A7.48,7.48,0,0,1,36.9,2.229Zm-14.48,8.435a7.2,7.2,0,0,1,4.863-3.358,23.274,23.274,0,0,0-1.868,5.142,24.973,24.973,0,0,0-3.469,4.1A7.186,7.186,0,0,1,22.424,10.664Zm3,14.94a23.278,23.278,0,0,0,1.864,5.133,7.181,7.181,0,0,1-4.861-3.353,7.184,7.184,0,0,1-.474-5.881,24.921,24.921,0,0,0,3.471,4.1Z" fill="#fb5012"/>
      <ellipse id="Ellipse_384" data-name="Ellipse 384" cx="5.574" cy="2.229" rx="5.574" ry="2.229" transform="translate(31.33 11.221)" fill="#800020"/>
      <path id="Path_9057" data-name="Path 9057" d="M186.574,213.229c-3.077,0-5.574-1-5.574-2.229v3.344c0,1.226,2.5,2.229,5.574,2.229s5.574-1,5.574-2.229V211C192.147,212.226,189.65,213.229,186.574,213.229Z" transform="translate(-149.67 -195.32)" fill="#fb5012"/>
      <path id="Path_9058" data-name="Path 9058" d="M186.574,288.229c-3.077,0-5.574-1-5.574-2.229v3.344c0,1.226,2.5,2.229,5.574,2.229s5.574-1,5.574-2.229V286C192.147,287.226,189.65,288.229,186.574,288.229Z" transform="translate(-149.67 -264.746)" fill="#800020"/>
    </g>
  </g>
</svg>
