<svg xmlns="http://www.w3.org/2000/svg" width="72.167" height="72.167" viewBox="0 0 72.167 72.167">
  <g id="Group_13015" data-name="Group 13015" transform="translate(-582 -9692.915)">
    <g id="Path_8532" data-name="Path 8532" transform="translate(582 9692.915)" fill="none">
      <path d="M36.083,0A36.083,36.083,0,1,1,0,36.083,36.083,36.083,0,0,1,36.083,0Z" stroke="none"/>
      <path d="M 36.08349609375 1.999992370605469 C 31.48137283325195 1.999992370605469 27.01797485351562 2.900886535644531 22.8172721862793 4.677627563476562 C 18.75887298583984 6.394187927246094 15.11363983154297 8.852008819580078 11.98281860351562 11.98281860351562 C 8.852008819580078 15.11363983154297 6.394187927246094 18.75887298583984 4.677627563476562 22.8172721862793 C 2.900886535644531 27.01797485351562 1.999992370605469 31.48137283325195 1.999992370605469 36.08349609375 C 1.999992370605469 40.68561553955078 2.900886535644531 45.14901733398438 4.677627563476562 49.34971618652344 C 6.394187927246094 53.40811920166016 8.852008819580078 57.05335235595703 11.98281860351562 60.18417358398438 C 15.11363983154297 63.31498718261719 18.75887298583984 65.77280426025391 22.8172721862793 67.48936462402344 C 27.01797485351562 69.26610565185547 31.48137283325195 70.16699981689453 36.08349609375 70.16699981689453 C 40.68561553955078 70.16699981689453 45.14901733398438 69.26610565185547 49.34971618652344 67.48936462402344 C 53.40811920166016 65.77280426025391 57.05335235595703 63.31498718261719 60.18417358398438 60.18417358398438 C 63.31498718261719 57.05335235595703 65.77280426025391 53.40811920166016 67.48936462402344 49.34971618652344 C 69.26610565185547 45.14901733398438 70.16699981689453 40.68561553955078 70.16699981689453 36.08349609375 C 70.16699981689453 31.48137283325195 69.26610565185547 27.01797485351562 67.48936462402344 22.8172721862793 C 65.77280426025391 18.75887298583984 63.31498718261719 15.11363983154297 60.18417358398438 11.98281860351562 C 57.05335235595703 8.852008819580078 53.40811920166016 6.394187927246094 49.34971618652344 4.677627563476562 C 45.14901733398438 2.900886535644531 40.68561553955078 1.999992370605469 36.08349609375 1.999992370605469 M 36.08349609375 -7.62939453125e-06 C 56.01186370849609 -7.62939453125e-06 72.16699981689453 16.15512847900391 72.16699981689453 36.08349609375 C 72.16699981689453 56.01186370849609 56.01186370849609 72.16699981689453 36.08349609375 72.16699981689453 C 16.15512847900391 72.16699981689453 -7.62939453125e-06 56.01186370849609 -7.62939453125e-06 36.08349609375 C -7.62939453125e-06 16.15512847900391 16.15512847900391 -7.62939453125e-06 36.08349609375 -7.62939453125e-06 Z" stroke="none" fill="#fb5012"/>
    </g>
    <g id="Business_Inteligent" transform="translate(597.349 9708.517)">
      <g id="Group_13004" data-name="Group 13004" transform="translate(2.4 1.921)">
        <path id="Path_9023" data-name="Path 9023" d="M14.289,42.8H8.08a.548.548,0,0,0-.58.58.581.581,0,0,0,.58.58h6.208a.58.58,0,0,0,0-1.16Z" transform="translate(-4.541 -19.081)" fill="#fb5012"/>
        <path id="Path_9024" data-name="Path 9024" d="M8.08,39.86H11.5a.58.58,0,1,0,0-1.16H8.08a.58.58,0,1,0,0,1.16Z" transform="translate(-4.541 -17.36)" fill="#fb5012"/>
        <path id="Path_9025" data-name="Path 9025" d="M30.189,42.8H23.98a.548.548,0,0,0-.58.58.581.581,0,0,0,.58.58h6.208a.58.58,0,0,0,0-1.16Z" transform="translate(-11.215 -19.081)" fill="#fb5012"/>
        <path id="Path_9026" data-name="Path 9026" d="M23.4,39.28a.581.581,0,0,0,.58.58H27.4a.58.58,0,1,0,0-1.16H23.98A.548.548,0,0,0,23.4,39.28Z" transform="translate(-11.215 -17.36)" fill="#fb5012"/>
        <path id="Path_9027" data-name="Path 9027" d="M46.089,42.8H39.88a.58.58,0,0,0,0,1.16h6.208a.58.58,0,1,0,0-1.16Z" transform="translate(-17.89 -19.081)" fill="#fb5012"/>
        <path id="Path_9028" data-name="Path 9028" d="M39.88,39.86H43.3a.581.581,0,0,0,.58-.58.624.624,0,0,0-.58-.58H39.88a.581.581,0,0,0-.58.58A.624.624,0,0,0,39.88,39.86Z" transform="translate(-17.89 -17.36)" fill="#fb5012"/>
        <path id="Path_9029" data-name="Path 9029" d="M9.38,30.266H12.8a.581.581,0,0,0,.58-.58V24.58A.548.548,0,0,0,12.8,24H9.38a.548.548,0,0,0-.58.58v5.106a.581.581,0,0,0,.58.58Zm.58-5.106h2.263v1.16H9.96Z" transform="translate(-5.087 -11.189)" fill="#fb5012"/>
        <path id="Path_9030" data-name="Path 9030" d="M19.68,27.79H23.1a.581.581,0,0,0,.58-.58V18.68a.581.581,0,0,0-.58-.58H19.68a.581.581,0,0,0-.58.58v8.529A.624.624,0,0,0,19.68,27.79Zm.58-8.529h2.263v1.567H20.26Z" transform="translate(-9.41 -8.713)" fill="#fb5012"/>
        <path id="Path_9031" data-name="Path 9031" d="M33.5,25.9H30.08a.581.581,0,0,0-.58.58v3.945a.581.581,0,0,0,.58.58H33.5a.624.624,0,0,0,.58-.58V26.48a.624.624,0,0,0-.58-.58ZM30.66,27.06h2.263v.986H30.66Z" transform="translate(-13.776 -11.987)" fill="#fb5012"/>
        <path id="Path_9032" data-name="Path 9032" d="M39.07,32.776a2.476,2.476,0,0,0-2.495-2.495H34.138V20.069A1.63,1.63,0,0,0,35.646,18.5V15.776A7.531,7.531,0,1,0,24.274,7.537H6.229A3.863,3.863,0,0,0,2.4,11.366V31.036a3.863,3.863,0,0,0,3.829,3.829h6.963V37.94H11.741a.522.522,0,0,0,0,1.044c14.505.058,2.611.058,13.751.058a2.539,2.539,0,0,0,1.451-.464,2.539,2.539,0,0,0,1.451.464h8.181a2.476,2.476,0,0,0,2.495-2.495,2.587,2.587,0,0,0-.87-1.915A2.372,2.372,0,0,0,39.07,32.776Zm-2.495,1.334H28.394a1.35,1.35,0,0,1-1.334-1.334,1.313,1.313,0,0,1,1.334-1.334h8.181a1.313,1.313,0,0,1,1.334,1.334A1.35,1.35,0,0,1,36.575,34.111Zm1.276,2.495a1.313,1.313,0,0,1-1.334,1.334H28.336a1.17,1.17,0,0,1-.638-.174,2.641,2.641,0,0,0,.29-1.16,2.222,2.222,0,0,0-.29-1.1,1.17,1.17,0,0,1,.638-.174h8.181a1.233,1.233,0,0,1,1.334,1.276ZM25.493,37.94H17.312a1.334,1.334,0,0,1,0-2.669h8.181a1.35,1.35,0,0,1,1.334,1.334A1.435,1.435,0,0,1,25.493,37.94ZM3.618,11.366A2.662,2.662,0,0,1,6.287,8.7H24.1c0,.232-.058.522-.058.754a7.663,7.663,0,0,0,3.423,6.324V18.5a1.56,1.56,0,0,0,1.567,1.567,2.707,2.707,0,0,0,2.553,1.8,3.208,3.208,0,0,0,1.451-.406v7.369H3.618ZM31.527,3.127a6.346,6.346,0,0,1,3.191,11.836H32.107V11.018A6.784,6.784,0,0,0,33.5,10.96,2.173,2.173,0,0,0,35.24,8.813a2.142,2.142,0,0,0-2.147-2.147,2.107,2.107,0,0,0-1.509.638l-.058.058a.057.057,0,0,0-.058-.058,2.211,2.211,0,0,0-1.509-.638,2.147,2.147,0,0,0,0,4.294h.986v3.945H28.336A6.32,6.32,0,0,1,31.527,3.127ZM17.079,31.848A1.19,1.19,0,0,1,18.3,30.629a1.226,1.226,0,0,1,1.218,1.218,1.22,1.22,0,0,1-2.437,0ZM29.96,7.885a.978.978,0,0,1,.986.986v.986H29.96a1.017,1.017,0,0,1-.986-.986A.978.978,0,0,1,29.96,7.885Zm3.191,1.973H32.107V8.871a.978.978,0,0,1,.986-.986,1.017,1.017,0,0,1,.986.986.967.967,0,0,1-.928.986Z" transform="translate(-2.4 -1.921)" fill="#800020"/>
      </g>
    </g>
  </g>
</svg>
