<svg xmlns="http://www.w3.org/2000/svg" width="72.167" height="72.167" viewBox="0 0 72.167 72.167">
  <g id="Group_13020" data-name="Group 13020" transform="translate(-234 -10459.732)">
    <g id="Path_8532" data-name="Path 8532" transform="translate(234 10459.732)" fill="none">
      <path d="M36.083,0A36.083,36.083,0,1,1,0,36.083,36.083,36.083,0,0,1,36.083,0Z" stroke="none"/>
      <path d="M 36.08349609375 1.999992370605469 C 31.48137283325195 1.999992370605469 27.01797485351562 2.900886535644531 22.8172721862793 4.677627563476562 C 18.75887298583984 6.394187927246094 15.11363983154297 8.852008819580078 11.98281860351562 11.98281860351562 C 8.852008819580078 15.11363983154297 6.394187927246094 18.75887298583984 4.677627563476562 22.8172721862793 C 2.900886535644531 27.01797485351562 1.999992370605469 31.48137283325195 1.999992370605469 36.08349609375 C 1.999992370605469 40.68561553955078 2.900886535644531 45.14901733398438 4.677627563476562 49.34971618652344 C 6.394187927246094 53.40811920166016 8.852008819580078 57.05335235595703 11.98281860351562 60.18417358398438 C 15.11363983154297 63.31498718261719 18.75887298583984 65.77280426025391 22.8172721862793 67.48936462402344 C 27.01797485351562 69.26610565185547 31.48137283325195 70.16699981689453 36.08349609375 70.16699981689453 C 40.68561553955078 70.16699981689453 45.14901733398438 69.26610565185547 49.34971618652344 67.48936462402344 C 53.40811920166016 65.77280426025391 57.05335235595703 63.31498718261719 60.18417358398438 60.18417358398438 C 63.31498718261719 57.05335235595703 65.77280426025391 53.40811920166016 67.48936462402344 49.34971618652344 C 69.26610565185547 45.14901733398438 70.16699981689453 40.68561553955078 70.16699981689453 36.08349609375 C 70.16699981689453 31.48137283325195 69.26610565185547 27.01797485351562 67.48936462402344 22.8172721862793 C 65.77280426025391 18.75887298583984 63.31498718261719 15.11363983154297 60.18417358398438 11.98281860351562 C 57.05335235595703 8.852008819580078 53.40811920166016 6.394187927246094 49.34971618652344 4.677627563476562 C 45.14901733398438 2.900886535644531 40.68561553955078 1.999992370605469 36.08349609375 1.999992370605469 M 36.08349609375 -7.62939453125e-06 C 56.01186370849609 -7.62939453125e-06 72.16699981689453 16.15512847900391 72.16699981689453 36.08349609375 C 72.16699981689453 56.01186370849609 56.01186370849609 72.16699981689453 36.08349609375 72.16699981689453 C 16.15512847900391 72.16699981689453 -7.62939453125e-06 56.01186370849609 -7.62939453125e-06 36.08349609375 C -7.62939453125e-06 16.15512847900391 16.15512847900391 -7.62939453125e-06 36.08349609375 -7.62939453125e-06 Z" stroke="none" fill="#fb5012"/>
    </g>
    <g id="_x31_9" transform="translate(249.851 10475.448)">
      <g id="Group_13010" data-name="Group 13010" transform="translate(3.302 3)">
        <path id="Path_9068" data-name="Path 9068" d="M36.626,15.415,21.107,3.3a1.44,1.44,0,0,0-1.749,0L3.838,15.415A1.418,1.418,0,0,0,3.3,16.53V36.662a1.072,1.072,0,0,0,1.072,1.072H7.619a1.072,1.072,0,0,0,1.072-1.072V22.737A1.415,1.415,0,0,1,10.1,21.327H30.362a1.415,1.415,0,0,1,1.411,1.411V36.662a1.072,1.072,0,0,0,1.072,1.072H36.09a1.072,1.072,0,0,0,1.072-1.072V16.53a1.418,1.418,0,0,0-.536-1.115Zm-16.394-.127a2.829,2.829,0,1,1,2.822-2.836A2.833,2.833,0,0,1,20.232,15.288Z" transform="translate(-3.302 -3)" fill="#fb5012"/>
      </g>
      <g id="Group_13013" data-name="Group 13013" transform="translate(12.045 32.811)">
        <g id="Group_13011" data-name="Group 13011">
          <path id="Path_9069" data-name="Path 9069" d="M16.552,25.009v2.1a1.415,1.415,0,0,1-1.411,1.411H10.754a1.415,1.415,0,0,1-1.411-1.411v-2.1A1.415,1.415,0,0,1,10.754,23.6h4.388a1.415,1.415,0,0,1,1.411,1.411Z" transform="translate(-9.343 -23.598)" fill="#800020"/>
        </g>
        <g id="Group_13012" data-name="Group 13012" transform="translate(9.326)">
          <path id="Path_9070" data-name="Path 9070" d="M23,25.009v2.1a1.415,1.415,0,0,1-1.411,1.411H17.2a1.415,1.415,0,0,1-1.411-1.411v-2.1A1.415,1.415,0,0,1,17.2,23.6h4.388A1.415,1.415,0,0,1,23,25.009Z" transform="translate(-15.786 -23.598)" fill="#800020"/>
        </g>
      </g>
      <g id="Group_13014" data-name="Group 13014" transform="translate(16.707 25.771)">
        <path id="Path_9071" data-name="Path 9071" d="M19.774,20.144v2.1a1.415,1.415,0,0,1-1.411,1.411H13.976a1.415,1.415,0,0,1-1.411-1.411v-2.1a1.415,1.415,0,0,1,1.411-1.411h4.388A1.415,1.415,0,0,1,19.774,20.144Z" transform="translate(-12.565 -18.733)" fill="#800020"/>
      </g>
    </g>
  </g>
</svg>
