<svg xmlns="http://www.w3.org/2000/svg" width="72.167" height="72.167" viewBox="0 0 72.167 72.167">
  <g id="Group_13007" data-name="Group 13007" transform="translate(-930 -9315.915)">
    <g id="Path_8532" data-name="Path 8532" transform="translate(930 9315.915)" fill="none">
      <path d="M36.083,0A36.083,36.083,0,1,1,0,36.083,36.083,36.083,0,0,1,36.083,0Z" stroke="none"/>
      <path d="M 36.08349609375 1.999992370605469 C 31.48137283325195 1.999992370605469 27.01797485351562 2.900886535644531 22.8172721862793 4.677627563476562 C 18.75887298583984 6.394187927246094 15.11363983154297 8.852008819580078 11.98281860351562 11.98281860351562 C 8.852008819580078 15.11363983154297 6.394187927246094 18.75887298583984 4.677627563476562 22.8172721862793 C 2.900886535644531 27.01797485351562 1.999992370605469 31.48137283325195 1.999992370605469 36.08349609375 C 1.999992370605469 40.68561553955078 2.900886535644531 45.14901733398438 4.677627563476562 49.34971618652344 C 6.394187927246094 53.40811920166016 8.852008819580078 57.05335235595703 11.98281860351562 60.18417358398438 C 15.11363983154297 63.31498718261719 18.75887298583984 65.77280426025391 22.8172721862793 67.48936462402344 C 27.01797485351562 69.26610565185547 31.48137283325195 70.16699981689453 36.08349609375 70.16699981689453 C 40.68561553955078 70.16699981689453 45.14901733398438 69.26610565185547 49.34971618652344 67.48936462402344 C 53.40811920166016 65.77280426025391 57.05335235595703 63.31498718261719 60.18417358398438 60.18417358398438 C 63.31498718261719 57.05335235595703 65.77280426025391 53.40811920166016 67.48936462402344 49.34971618652344 C 69.26610565185547 45.14901733398438 70.16699981689453 40.68561553955078 70.16699981689453 36.08349609375 C 70.16699981689453 31.48137283325195 69.26610565185547 27.01797485351562 67.48936462402344 22.8172721862793 C 65.77280426025391 18.75887298583984 63.31498718261719 15.11363983154297 60.18417358398438 11.98281860351562 C 57.05335235595703 8.852008819580078 53.40811920166016 6.394187927246094 49.34971618652344 4.677627563476562 C 45.14901733398438 2.900886535644531 40.68561553955078 1.999992370605469 36.08349609375 1.999992370605469 M 36.08349609375 -7.62939453125e-06 C 56.01186370849609 -7.62939453125e-06 72.16699981689453 16.15512847900391 72.16699981689453 36.08349609375 C 72.16699981689453 56.01186370849609 56.01186370849609 72.16699981689453 36.08349609375 72.16699981689453 C 16.15512847900391 72.16699981689453 -7.62939453125e-06 56.01186370849609 -7.62939453125e-06 36.08349609375 C -7.62939453125e-06 16.15512847900391 16.15512847900391 -7.62939453125e-06 36.08349609375 -7.62939453125e-06 Z" stroke="none" fill="#fb5012"/>
    </g>
    <g id="data-analysis_1_" data-name="data-analysis (1)" transform="translate(947.342 9333.274)">
      <path id="Path_9036" data-name="Path 9036" d="M116.606,272.051V257.339A1.337,1.337,0,0,0,115.269,256H95.207a1.337,1.337,0,0,0-1.337,1.337v14.712a1.337,1.337,0,0,0,1.337,1.337h20.061A1.337,1.337,0,0,0,116.606,272.051Zm-2.675,0H97.214a1.337,1.337,0,0,1-1.337-1.337V258.677a.669.669,0,1,1,1.337,0v12.037h1.337v-5.35a1.337,1.337,0,0,1,1.337-1.337h1.337a1.337,1.337,0,0,1,1.337,1.337v5.35H103.9V262.02a1.337,1.337,0,0,1,1.337-1.337h1.337a1.337,1.337,0,0,1,1.337,1.337v8.693h1.337V264.7a1.337,1.337,0,0,1,1.337-1.337h1.337a1.337,1.337,0,0,1,1.337,1.337v6.018h.669a.669.669,0,1,1,0,1.337Z" transform="translate(-86.497 -235.94)" fill="#800020"/>
      <path id="Path_9037" data-name="Path 9037" d="M170.671,375.469h1.337v5.35h-1.337Z" transform="translate(-157.279 -346.045)" fill="#fb5012"/>
      <path id="Path_9038" data-name="Path 9038" d="M307.2,366.936h1.337v6.018H307.2Z" transform="translate(-283.113 -338.181)" fill="#fb5012"/>
      <path id="Path_9039" data-name="Path 9039" d="M262.364,155.133a.669.669,0,0,0,.488-.642V143.363l-10.024,2.809a3.173,3.173,0,0,1-3.568-1.421l-1.788-2.984v7.615h9.362a2.675,2.675,0,0,1,2.675,2.675v3.873Z" transform="translate(-228.061 -130.657)" fill="#fb5012"/>
      <path id="Path_9040" data-name="Path 9040" d="M49.517,149.382v-7.615l-1.788,2.981a3.166,3.166,0,0,1-3.568,1.424l-10.024-2.809v11.127a.669.669,0,0,0,.487.639l2.857.8v-3.873a2.675,2.675,0,0,1,2.675-2.675Z" transform="translate(-31.445 -130.657)" fill="#fb5012"/>
      <path id="Path_9041" data-name="Path 9041" d="M238.938,332.8h1.337V341.5h-1.337Z" transform="translate(-220.197 -306.722)" fill="#fb5012"/>
      <path id="Path_9042" data-name="Path 9042" d="M1.355,67.339l11.723,3.284a1.832,1.832,0,0,0,2.061-.82l2.58-4.3L2.338,61.195.28,64.635a1.83,1.83,0,0,0,1.075,2.7Z" transform="translate(0 -56.399)" fill="#800020"/>
      <path id="Path_9043" data-name="Path 9043" d="M254.606,69.8a1.834,1.834,0,0,0,2.061.82l11.722-3.284a1.83,1.83,0,0,0,1.075-2.7l-2.055-3.441L252.028,65.5Z" transform="translate(-232.261 -56.399)" fill="#800020"/>
      <path id="Path_9044" data-name="Path 9044" d="M85.521,4.009,71.622.05a1.321,1.321,0,0,0-.718,0l-13.9,3.959L71.264,8Z" transform="translate(-52.523 0)" fill="#fb5012"/>
    </g>
  </g>
</svg>
