<svg xmlns="http://www.w3.org/2000/svg" width="56.415" height="56.414" viewBox="0 0 56.415 56.414">
  <g id="process_3_" data-name="process (3)" transform="translate(0 -0.004)">
    <path id="Path_8672" data-name="Path 8672" d="M3.117,22.1a1.652,1.652,0,0,0,1.265-.008L9.326,20A1.653,1.653,0,0,0,8.04,16.956l-1.209.51a23.689,23.689,0,0,1,44.622,3.6,1.653,1.653,0,0,0,3.2-.828A26.994,26.994,0,0,0,3.734,16.3l-.558-1.322A1.653,1.653,0,1,0,.131,16.265l2.086,4.943a1.652,1.652,0,0,0,.9.889Z" transform="translate(0)" fill="#800020"/>
    <path id="Path_8673" data-name="Path 8673" d="M70.08,313.306l-2.086-4.944a1.653,1.653,0,0,0-2.165-.88l-4.944,2.087a1.653,1.653,0,0,0,1.285,3.045l1.384-.584a23.689,23.689,0,0,1-44.8-3.193,1.653,1.653,0,0,0-3.2.828,26.994,26.994,0,0,0,50.99,3.773l.487,1.154a1.653,1.653,0,1,0,3.045-1.285Z" transform="translate(-13.796 -273.484)" fill="#800020"/>
    <circle id="Ellipse_334" data-name="Ellipse 334" cx="1.704" cy="1.704" r="1.704" transform="translate(26.134 26.138)" fill="#800020"/>
    <path id="Path_8674" data-name="Path 8674" d="M128.688,119.545a4.132,4.132,0,1,0,0-8.264h-.309a13.533,13.533,0,0,0-.877-2.116l.219-.219a4.132,4.132,0,0,0-5.844-5.843l-.219.219a13.56,13.56,0,0,0-2.116-.877v-.309a4.132,4.132,0,1,0-8.264,0v.309a13.547,13.547,0,0,0-2.116.877l-.219-.219a4.132,4.132,0,1,0-5.843,5.843l.219.219a13.529,13.529,0,0,0-.877,2.116h-.309a4.132,4.132,0,1,0,0,8.264h.309a13.544,13.544,0,0,0,.877,2.116l-.219.219a4.132,4.132,0,0,0,5.844,5.843l.219-.219a13.552,13.552,0,0,0,2.116.877v.309a4.132,4.132,0,1,0,8.264,0v-.309a13.537,13.537,0,0,0,2.116-.877l.219.219a4.132,4.132,0,1,0,5.843-5.843l-.219-.219a13.534,13.534,0,0,0,.877-2.116h.309Zm-13.277.826a4.958,4.958,0,1,1,4.958-4.958A4.964,4.964,0,0,1,115.411,120.371Z" transform="translate(-87.204 -87.202)" fill="#fb5012"/>
  </g>
</svg>
