<svg xmlns="http://www.w3.org/2000/svg" width="72.167" height="72.167" viewBox="0 0 72.167 72.167">
  <g id="Group_12943" data-name="Group 12943" transform="translate(-207 -4474.429)">
    <g id="Path_8512" data-name="Path 8512" transform="translate(207 4474.429)" fill="none">
      <path d="M36.083,0A36.083,36.083,0,1,1,0,36.083,36.083,36.083,0,0,1,36.083,0Z" stroke="none"/>
      <path d="M 36.08349609375 1.999992370605469 C 31.48137283325195 1.999992370605469 27.01797485351562 2.900886535644531 22.8172721862793 4.677627563476562 C 18.75887298583984 6.394187927246094 15.11363983154297 8.852008819580078 11.98281860351562 11.98281860351562 C 8.852008819580078 15.11363983154297 6.394187927246094 18.75887298583984 4.677627563476562 22.8172721862793 C 2.900886535644531 27.01797485351562 1.999992370605469 31.48137283325195 1.999992370605469 36.08349609375 C 1.999992370605469 40.68561553955078 2.900886535644531 45.14901733398438 4.677627563476562 49.34971618652344 C 6.394187927246094 53.40811920166016 8.852008819580078 57.05335235595703 11.98281860351562 60.18417358398438 C 15.11363983154297 63.31498718261719 18.75887298583984 65.77280426025391 22.8172721862793 67.48936462402344 C 27.01797485351562 69.26610565185547 31.48137283325195 70.16699981689453 36.08349609375 70.16699981689453 C 40.68561553955078 70.16699981689453 45.14901733398438 69.26610565185547 49.34971618652344 67.48936462402344 C 53.40811920166016 65.77280426025391 57.05335235595703 63.31498718261719 60.18417358398438 60.18417358398438 C 63.31498718261719 57.05335235595703 65.77280426025391 53.40811920166016 67.48936462402344 49.34971618652344 C 69.26610565185547 45.14901733398438 70.16699981689453 40.68561553955078 70.16699981689453 36.08349609375 C 70.16699981689453 31.48137283325195 69.26610565185547 27.01797485351562 67.48936462402344 22.8172721862793 C 65.77280426025391 18.75887298583984 63.31498718261719 15.11363983154297 60.18417358398438 11.98281860351562 C 57.05335235595703 8.852008819580078 53.40811920166016 6.394187927246094 49.34971618652344 4.677627563476562 C 45.14901733398438 2.900886535644531 40.68561553955078 1.999992370605469 36.08349609375 1.999992370605469 M 36.08349609375 -7.62939453125e-06 C 56.01186370849609 -7.62939453125e-06 72.16699981689453 16.15512847900391 72.16699981689453 36.08349609375 C 72.16699981689453 56.01186370849609 56.01186370849609 72.16699981689453 36.08349609375 72.16699981689453 C 16.15512847900391 72.16699981689453 -7.62939453125e-06 56.01186370849609 -7.62939453125e-06 36.08349609375 C -7.62939453125e-06 16.15512847900391 16.15512847900391 -7.62939453125e-06 36.08349609375 -7.62939453125e-06 Z" stroke="none" fill="#fb5012"/>
    </g>
    <g id="analyse" transform="translate(218.939 4486.532)">
      <path id="Path_8923" data-name="Path 8923" d="M37.221,24.943a14.923,14.923,0,0,0-.907-5.157l-1.133,1.83a13.292,13.292,0,0,1,.421,3.328,13.48,13.48,0,0,1-24.5,7.764L10.114,34.1a15.058,15.058,0,0,0,19.4,3.992l5.878,7.052a4.929,4.929,0,0,0,3.587,1.862c.089.008.186.008.283.008a4.932,4.932,0,0,0,3.069-8.793l-7.06-5.886a14.94,14.94,0,0,0,1.951-7.392Z" transform="translate(-1.151 -3.604)" fill="#800020"/>
      <path id="Path_8924" data-name="Path 8924" d="M7.915,24.394a13.054,13.054,0,0,1-.243-2.534,13.479,13.479,0,0,1,24.006-8.428l.891-1.449A15.091,15.091,0,0,0,6.676,26.134Z" transform="translate(-0.191 -0.521)" fill="#800020"/>
      <path id="Path_8925" data-name="Path 8925" d="M6.056,31.2a.808.808,0,0,0,.66-.339l4.923-6.9a2.886,2.886,0,0,0,2.635-.319l2.614,2.227a2.921,2.921,0,0,0-.182.988,2.965,2.965,0,1,0,4.182-2.7l.364-2.2a2.956,2.956,0,0,0,2.122-1.217l2.236,1.031c-.007.086-.026.17-.026.259a2.965,2.965,0,0,0,5.931,0,2.939,2.939,0,0,0-.707-1.9l5.57-8.971a3.347,3.347,0,0,0,.949.152,3.4,3.4,0,1,0-2.353-.961l-5.509,8.872a2.88,2.88,0,0,0-3.275,1.031l-2.276-1.048c0-.062.019-.121.019-.185a2.966,2.966,0,1,0-4.274,2.648l-.375,2.26a2.933,2.933,0,0,0-1.449.617l-2.515-2.142a2.967,2.967,0,1,0-5,.614L5.4,29.919a.81.81,0,0,0,.658,1.28ZM37.326,6.169a1.763,1.763,0,1,1-1.763,1.763,1.765,1.765,0,0,1,1.763-1.763ZM28.549,20.687A1.346,1.346,0,1,1,27.2,22.033,1.347,1.347,0,0,1,28.549,20.687Zm-8.93-1.663a1.346,1.346,0,1,1,1.346,1.346A1.348,1.348,0,0,1,19.62,19.024Zm.05,6.488a1.346,1.346,0,1,1-1.346,1.346A1.348,1.348,0,0,1,19.67,25.513Zm-7.042-5.679a1.346,1.346,0,1,1-.77,2.447s0,0-.007-.007l0,0a1.343,1.343,0,0,1,.781-2.438Z" transform="translate(0 0)" fill="#fb5012"/>
    </g>
  </g>
</svg>
