<svg xmlns="http://www.w3.org/2000/svg" width="72.167" height="72.167" viewBox="0 0 72.167 72.167">
  <g id="Group_12525" data-name="Group 12525" transform="translate(-778 -6072.472)">
    <g id="Path_8533" data-name="Path 8533" transform="translate(778 6072.472)" fill="none">
      <path d="M36.083,0A36.083,36.083,0,1,1,0,36.083,36.083,36.083,0,0,1,36.083,0Z" stroke="none"/>
      <path d="M 36.08349609375 1.999992370605469 C 31.48137283325195 1.999992370605469 27.01797485351562 2.900886535644531 22.8172721862793 4.677627563476562 C 18.75887298583984 6.394187927246094 15.11363983154297 8.852008819580078 11.98281860351562 11.98281860351562 C 8.852008819580078 15.11363983154297 6.394187927246094 18.75887298583984 4.677627563476562 22.8172721862793 C 2.900886535644531 27.01797485351562 1.999992370605469 31.48137283325195 1.999992370605469 36.08349609375 C 1.999992370605469 40.68561553955078 2.900886535644531 45.14901733398438 4.677627563476562 49.34971618652344 C 6.394187927246094 53.40811920166016 8.852008819580078 57.05335235595703 11.98281860351562 60.18417358398438 C 15.11363983154297 63.31498718261719 18.75887298583984 65.77280426025391 22.8172721862793 67.48936462402344 C 27.01797485351562 69.26610565185547 31.48137283325195 70.16699981689453 36.08349609375 70.16699981689453 C 40.68561553955078 70.16699981689453 45.14901733398438 69.26610565185547 49.34971618652344 67.48936462402344 C 53.40811920166016 65.77280426025391 57.05335235595703 63.31498718261719 60.18417358398438 60.18417358398438 C 63.31498718261719 57.05335235595703 65.77280426025391 53.40811920166016 67.48936462402344 49.34971618652344 C 69.26610565185547 45.14901733398438 70.16699981689453 40.68561553955078 70.16699981689453 36.08349609375 C 70.16699981689453 31.48137283325195 69.26610565185547 27.01797485351562 67.48936462402344 22.8172721862793 C 65.77280426025391 18.75887298583984 63.31498718261719 15.11363983154297 60.18417358398438 11.98281860351562 C 57.05335235595703 8.852008819580078 53.40811920166016 6.394187927246094 49.34971618652344 4.677627563476562 C 45.14901733398438 2.900886535644531 40.68561553955078 1.999992370605469 36.08349609375 1.999992370605469 M 36.08349609375 -7.62939453125e-06 C 56.01186370849609 -7.62939453125e-06 72.16699981689453 16.15512847900391 72.16699981689453 36.08349609375 C 72.16699981689453 56.01186370849609 56.01186370849609 72.16699981689453 36.08349609375 72.16699981689453 C 16.15512847900391 72.16699981689453 -7.62939453125e-06 56.01186370849609 -7.62939453125e-06 36.08349609375 C -7.62939453125e-06 16.15512847900391 16.15512847900391 -7.62939453125e-06 36.08349609375 -7.62939453125e-06 Z" stroke="none" fill="#fb5012"/>
    </g>
    <g id="accuracy_1_" data-name="accuracy (1)" transform="translate(791.962 6086.434)">
      <path id="Path_8538" data-name="Path 8538" d="M42.938,20.817H41.324a19.246,19.246,0,0,0-17.9-17.9V1.305a1.305,1.305,0,0,0-2.61,0V2.919a19.246,19.246,0,0,0-17.9,17.9H1.305a1.305,1.305,0,0,0,0,2.61H2.919a19.246,19.246,0,0,0,17.9,17.9v1.614a1.305,1.305,0,1,0,2.61,0V41.324a19.246,19.246,0,0,0,17.9-17.9h1.614a1.305,1.305,0,0,0,0-2.61ZM23.427,38.707V37.188a1.305,1.305,0,0,0-2.61,0v1.519a16.663,16.663,0,0,1-15.28-15.28H7.055a1.305,1.305,0,0,0,0-2.61H5.536a16.663,16.663,0,0,1,15.28-15.28V7.055a1.305,1.305,0,1,0,2.61,0V5.536a16.663,16.663,0,0,1,15.28,15.28H37.188a1.305,1.305,0,0,0,0,2.61h1.519A16.663,16.663,0,0,1,23.427,38.707Z" fill="#800020"/>
      <path id="Path_8539" data-name="Path 8539" d="M242.186,240.9a1.305,1.305,0,1,0,1.305,1.305A1.32,1.32,0,0,0,242.186,240.9Z" transform="translate(-220.064 -220.079)" fill="#800020"/>
      <path id="Path_8540" data-name="Path 8540" d="M166.922,157.758h-1.447a6.567,6.567,0,0,0-5.112-5.112V151.2a1.305,1.305,0,1,0-2.61,0v1.447a6.567,6.567,0,0,0-5.112,5.111h-1.448a1.305,1.305,0,0,0,0,2.61h1.447a6.567,6.567,0,0,0,5.111,5.112v1.447a1.305,1.305,0,1,0,2.61,0V165.48a6.567,6.567,0,0,0,5.112-5.111h1.447a1.305,1.305,0,0,0,0-2.61ZM159.058,163A3.937,3.937,0,1,1,163,159.059s0,0,0,0,0,0,0,0A3.942,3.942,0,0,1,159.058,163Z" transform="translate(-136.937 -136.941)" fill="#fb5012"/>
    </g>
  </g>
</svg>
