<svg xmlns="http://www.w3.org/2000/svg" width="72.167" height="72.167" viewBox="0 0 72.167 72.167">
  <g id="Group_12942" data-name="Group 12942" transform="translate(-207 -4338.546)">
    <g id="Path_8511" data-name="Path 8511" transform="translate(207 4338.546)" fill="none">
      <path d="M36.083,0A36.083,36.083,0,1,1,0,36.083,36.083,36.083,0,0,1,36.083,0Z" stroke="none"/>
      <path d="M 36.08349609375 1.999992370605469 C 31.48137283325195 1.999992370605469 27.01797485351562 2.900886535644531 22.8172721862793 4.677627563476562 C 18.75887298583984 6.394187927246094 15.11363983154297 8.852008819580078 11.98281860351562 11.98281860351562 C 8.852008819580078 15.11363983154297 6.394187927246094 18.75887298583984 4.677627563476562 22.8172721862793 C 2.900886535644531 27.01797485351562 1.999992370605469 31.48137283325195 1.999992370605469 36.08349609375 C 1.999992370605469 40.68561553955078 2.900886535644531 45.14901733398438 4.677627563476562 49.34971618652344 C 6.394187927246094 53.40811920166016 8.852008819580078 57.05335235595703 11.98281860351562 60.18417358398438 C 15.11363983154297 63.31498718261719 18.75887298583984 65.77280426025391 22.8172721862793 67.48936462402344 C 27.01797485351562 69.26610565185547 31.48137283325195 70.16699981689453 36.08349609375 70.16699981689453 C 40.68561553955078 70.16699981689453 45.14901733398438 69.26610565185547 49.34971618652344 67.48936462402344 C 53.40811920166016 65.77280426025391 57.05335235595703 63.31498718261719 60.18417358398438 60.18417358398438 C 63.31498718261719 57.05335235595703 65.77280426025391 53.40811920166016 67.48936462402344 49.34971618652344 C 69.26610565185547 45.14901733398438 70.16699981689453 40.68561553955078 70.16699981689453 36.08349609375 C 70.16699981689453 31.48137283325195 69.26610565185547 27.01797485351562 67.48936462402344 22.8172721862793 C 65.77280426025391 18.75887298583984 63.31498718261719 15.11363983154297 60.18417358398438 11.98281860351562 C 57.05335235595703 8.852008819580078 53.40811920166016 6.394187927246094 49.34971618652344 4.677627563476562 C 45.14901733398438 2.900886535644531 40.68561553955078 1.999992370605469 36.08349609375 1.999992370605469 M 36.08349609375 -7.62939453125e-06 C 56.01186370849609 -7.62939453125e-06 72.16699981689453 16.15512847900391 72.16699981689453 36.08349609375 C 72.16699981689453 56.01186370849609 56.01186370849609 72.16699981689453 36.08349609375 72.16699981689453 C 16.15512847900391 72.16699981689453 -7.62939453125e-06 56.01186370849609 -7.62939453125e-06 36.08349609375 C -7.62939453125e-06 16.15512847900391 16.15512847900391 -7.62939453125e-06 36.08349609375 -7.62939453125e-06 Z" stroke="none" fill="#fb5012"/>
    </g>
    <g id="create" transform="translate(221.731 4353.279)">
      <path id="Path_8931" data-name="Path 8931" d="M70.606,319.763a1.251,1.251,0,0,0,1.448,1.448l9.468-1.658-9.259-9.259Z" transform="translate(-64.7 -284.414)" fill="#fb5012"/>
      <path id="Path_8932" data-name="Path 8932" d="M123.942,95.648a1.251,1.251,0,0,0-1.769,0L106.8,111.021l4.17,4.17,16.257-16.257Z" transform="translate(-97.892 -87.334)" fill="#800020"/>
      <path id="Path_8933" data-name="Path 8933" d="M197.555,163.566l-3.284-3.285-16.257,16.257,4.169,4.169,15.373-15.373A1.251,1.251,0,0,0,197.555,163.566Z" transform="translate(-163.166 -146.913)" fill="#800020"/>
      <path id="Path_8934" data-name="Path 8934" d="M36.45,6.254A21.355,21.355,0,0,0,3.709,33.387l.668-3.819A18.855,18.855,0,1,1,21.352,40.2a1.251,1.251,0,0,0,0,2.5,21.352,21.352,0,0,0,15.1-36.45Z" fill="#fb5012"/>
    </g>
  </g>
</svg>
