<svg xmlns="http://www.w3.org/2000/svg" width="72.167" height="72.167" viewBox="0 0 72.167 72.167">
  <g id="Group_12941" data-name="Group 12941" transform="translate(-207 -4211.489)">
    <g id="Group_12528" data-name="Group 12528" transform="translate(0 -1537.411)">
      <g id="Path_8452" data-name="Path 8452" transform="translate(207 5748.9)" fill="none">
        <path d="M36.083,0A36.083,36.083,0,1,1,0,36.083,36.083,36.083,0,0,1,36.083,0Z" stroke="none"/>
        <path d="M 36.08349609375 1.999992370605469 C 31.48137283325195 1.999992370605469 27.01797485351562 2.900886535644531 22.8172721862793 4.677627563476562 C 18.75887298583984 6.394187927246094 15.11363983154297 8.852008819580078 11.98281860351562 11.98281860351562 C 8.852008819580078 15.11363983154297 6.394187927246094 18.75887298583984 4.677627563476562 22.8172721862793 C 2.900886535644531 27.01797485351562 1.999992370605469 31.48137283325195 1.999992370605469 36.08349609375 C 1.999992370605469 40.68561553955078 2.900886535644531 45.14901733398438 4.677627563476562 49.34971618652344 C 6.394187927246094 53.40811920166016 8.852008819580078 57.05335235595703 11.98281860351562 60.18417358398438 C 15.11363983154297 63.31498718261719 18.75887298583984 65.77280426025391 22.8172721862793 67.48936462402344 C 27.01797485351562 69.26610565185547 31.48137283325195 70.16699981689453 36.08349609375 70.16699981689453 C 40.68561553955078 70.16699981689453 45.14901733398438 69.26610565185547 49.34971618652344 67.48936462402344 C 53.40811920166016 65.77280426025391 57.05335235595703 63.31498718261719 60.18417358398438 60.18417358398438 C 63.31498718261719 57.05335235595703 65.77280426025391 53.40811920166016 67.48936462402344 49.34971618652344 C 69.26610565185547 45.14901733398438 70.16699981689453 40.68561553955078 70.16699981689453 36.08349609375 C 70.16699981689453 31.48137283325195 69.26610565185547 27.01797485351562 67.48936462402344 22.8172721862793 C 65.77280426025391 18.75887298583984 63.31498718261719 15.11363983154297 60.18417358398438 11.98281860351562 C 57.05335235595703 8.852008819580078 53.40811920166016 6.394187927246094 49.34971618652344 4.677627563476562 C 45.14901733398438 2.900886535644531 40.68561553955078 1.999992370605469 36.08349609375 1.999992370605469 M 36.08349609375 -7.62939453125e-06 C 56.01186370849609 -7.62939453125e-06 72.16699981689453 16.15512847900391 72.16699981689453 36.08349609375 C 72.16699981689453 56.01186370849609 56.01186370849609 72.16699981689453 36.08349609375 72.16699981689453 C 16.15512847900391 72.16699981689453 -7.62939453125e-06 56.01186370849609 -7.62939453125e-06 36.08349609375 C -7.62939453125e-06 16.15512847900391 16.15512847900391 -7.62939453125e-06 36.08349609375 -7.62939453125e-06 Z" stroke="none" fill="#fb5012"/>
      </g>
    </g>
    <g id="get-money" transform="translate(227.511 4231.272)">
      <g id="Group_12932" data-name="Group 12932" transform="translate(0.026 19.228)">
        <g id="Group_12931" data-name="Group 12931">
          <path id="Path_8935" data-name="Path 8935" d="M2.891,302H.981a.954.954,0,0,0-.955.955v11.461a.955.955,0,0,0,.955.955h1.91a.955.955,0,0,0,.955-.955V302.955A.954.954,0,0,0,2.891,302Z" transform="translate(-0.026 -302)" fill="#800020"/>
        </g>
      </g>
      <g id="Group_12934" data-name="Group 12934" transform="translate(11.487)">
        <g id="Group_12933" data-name="Group 12933">
          <path id="Path_8936" data-name="Path 8936" d="M184.865,0a4.89,4.89,0,0,0-4.839,4.839,4.839,4.839,0,1,0,9.678,0A4.89,4.89,0,0,0,184.865,0Z" transform="translate(-180.026)" fill="#800020"/>
        </g>
      </g>
      <g id="Group_12936" data-name="Group 12936" transform="translate(5.756 9.678)">
        <g id="Group_12935" data-name="Group 12935">
          <path id="Path_8937" data-name="Path 8937" d="M93.846,152a3.82,3.82,0,1,0,3.82,3.82A3.824,3.824,0,0,0,93.846,152Z" transform="translate(-90.026 -152)" fill="#800020"/>
        </g>
      </g>
      <g id="Group_12938" data-name="Group 12938" transform="translate(19.254 9.678)">
        <g id="Group_12937" data-name="Group 12937">
          <path id="Path_8938" data-name="Path 8938" d="M305.846,152a3.82,3.82,0,1,0,3.82,3.82A3.824,3.824,0,0,0,305.846,152Z" transform="translate(-302.026 -152)" fill="#800020"/>
        </g>
      </g>
      <g id="Group_12940" data-name="Group 12940" transform="translate(5.756 18.877)">
        <g id="Group_12939" data-name="Group 12939">
          <path id="Path_8939" data-name="Path 8939" d="M116.112,297.193a1.9,1.9,0,0,0-2.521.248l-5.157,6.418a2.309,2.309,0,0,1-1.413.611H98.685a1.085,1.085,0,0,0-.919.4.955.955,0,0,1-1.548-1.119,2.99,2.99,0,0,1,2.467-1.186h7.7a1.91,1.91,0,1,0,0-3.82H99.411a1.77,1.77,0,0,1-1.152-.63,6.532,6.532,0,0,0-6.1-1.394,6.7,6.7,0,0,0-2.136.972V310.2h16.363a5.754,5.754,0,0,0,4.584-2.292l5.539-8.022A1.925,1.925,0,0,0,116.112,297.193Z" transform="translate(-90.026 -296.478)" fill="#fb5012"/>
        </g>
      </g>
    </g>
  </g>
</svg>
