<svg xmlns="http://www.w3.org/2000/svg" width="61.765" height="81.334" viewBox="0 0 61.765 81.334">
  <g id="success" transform="translate(-59.087 0)">
    <circle id="Ellipse_204" data-name="Ellipse 204" cx="9.153" cy="9.153" r="9.153" transform="translate(80.365 31.474)" fill="#0670f4"/>
    <path id="Path_5635" data-name="Path 5635" d="M119.13,179.685h0a5.364,5.364,0,0,0-5.362,5.364v5.266a18.8,18.8,0,0,1-37.592,0v-5.266a5.363,5.363,0,1,0-10.726,0v5.168a29.475,29.475,0,0,0,11.734,23.563,1.652,1.652,0,0,1,.656,1.318v14.509a1.656,1.656,0,0,0,1.656,1.656h30.649a1.656,1.656,0,0,0,1.656-1.656V215.247a1.652,1.652,0,0,1,.663-1.324,29.968,29.968,0,0,0,12.03-24.024v-4.85A5.364,5.364,0,0,0,119.13,179.685Z" transform="translate(-5.308 -149.93)" fill="#0670f4"/>
    <path id="Path_5636" data-name="Path 5636" d="M170.387,15.459a1.792,1.792,0,0,1,.406,1.231l-.311,6a1.791,1.791,0,0,0,2.45,1.757l5.5-2.185a1.79,1.79,0,0,1,1.323,0l5.5,2.185a1.791,1.791,0,0,0,2.45-1.757l-.311-6a1.79,1.79,0,0,1,.406-1.231l3.714-4.512a1.791,1.791,0,0,0-.9-2.862L184.84,6.464a1.791,1.791,0,0,1-1.011-.738L180.586.806a1.791,1.791,0,0,0-2.99,0l-3.243,4.92a1.791,1.791,0,0,1-1.011.738L167.57,8.085a1.791,1.791,0,0,0-.9,2.862Z" transform="translate(-89.429 0)" fill="#0d3a8f"/>
    <path id="Path_5637" data-name="Path 5637" d="M73.161,58.355a2.484,2.484,0,0,0,0-3.513l-9.835-9.835a2.484,2.484,0,1,0-3.513,3.513l9.835,9.835A2.484,2.484,0,0,0,73.161,58.355Z" transform="translate(0 -36.947)" fill="#0d3a8f"/>
    <path id="Path_5638" data-name="Path 5638" d="M356.765,45.008a2.484,2.484,0,0,0-3.513,0l-9.835,9.835a2.484,2.484,0,0,0,3.513,3.513l9.835-9.835A2.484,2.484,0,0,0,356.765,45.008Z" transform="translate(-236.641 -36.947)" fill="#0d3a8f"/>
  </g>
</svg>
