<svg xmlns="http://www.w3.org/2000/svg" width="43.16" height="42.991" viewBox="0 0 43.16 42.991">
  <g id="web-development_3_" data-name="web-development (3)" transform="translate(0 -1)">
    <path id="Path_8656" data-name="Path 8656" d="M43.16,11.116V4.793A3.8,3.8,0,0,0,39.366,1H3.793A3.8,3.8,0,0,0,0,4.793v6.322ZM29.167,6.058h7.587a1.264,1.264,0,0,1,0,2.529H29.167a1.264,1.264,0,0,1,0-2.529Zm-12.644,0a1.264,1.264,0,1,1-1.264,1.264A1.264,1.264,0,0,1,16.522,6.058Zm-5.058,0A1.264,1.264,0,1,1,10.2,7.322,1.264,1.264,0,0,1,11.464,6.058Zm-5.058,0A1.264,1.264,0,1,1,5.142,7.322,1.264,1.264,0,0,1,6.407,6.058Z" fill="#800020"/>
    <path id="Path_8657" data-name="Path 8657" d="M0,151v26.553a3.8,3.8,0,0,0,3.793,3.793H39.366a3.8,3.8,0,0,0,3.793-3.793V151Zm14.783,17.979a1.264,1.264,0,1,1-1.58,1.975L6.881,165.9a1.265,1.265,0,0,1,0-1.975l6.322-5.058a1.264,1.264,0,1,1,1.58,1.975L9.7,164.909Zm11.752-12.423-7.587,17.7a1.264,1.264,0,0,1-2.324-1l7.587-17.7a1.264,1.264,0,1,1,2.324,1Zm9.743,9.34-6.322,5.058a1.264,1.264,0,1,1-1.58-1.975l5.088-4.071-5.088-4.07a1.264,1.264,0,1,1,1.58-1.975l6.322,5.058a1.265,1.265,0,0,1,0,1.975Z" transform="translate(0 -137.356)" fill="#fb5012"/>
  </g>
</svg>
